<svg width="52" height="17" viewBox="0 0 52 17" fill="none" xmlns="http://www.w3.org/2000/svg">
<path fill-rule="evenodd" clip-rule="evenodd" d="M14.9067 5.96225C11.4329 5.96225 8.61891 8.39892 8.61891 11.4023C8.61891 12.2232 8.82762 12.9966 9.20082 13.6919H3.65769V6.33288H0V16.5712H7.91143L9.57578 14.2923C10.6865 15.8284 12.6551 16.8484 14.9067 16.8484C18.3786 16.8484 21.1927 14.4086 21.1927 11.4007C21.1944 8.39892 18.3786 5.96225 14.9067 5.96225ZM14.9067 13.9752C13.2653 13.9752 11.937 12.8266 11.937 11.4023C11.937 9.98559 13.2653 8.83387 14.9067 8.83387C16.5463 8.83387 17.8746 9.98405 17.8746 11.4023C17.8746 12.8266 16.5463 13.9752 14.9067 13.9752ZM30.275 12.6168L25.8585 6.33288H25.4163H22.6395H22.199V16.5727H25.4181V10.2873L29.8381 16.5712H33.4976V6.33288H30.2767V12.6168H30.275ZM46.9627 10.4527H46.8584H43.7171H40.7705V12.2706H43.7525C43.3369 13.3519 42.1589 14.1299 40.7705 14.1299C39.0318 14.1299 37.6204 12.9108 37.6204 11.4023C37.6204 9.89982 39.0318 8.67919 40.7705 8.67919C41.6018 8.67919 42.357 8.96099 42.9195 9.41739H46.6249C45.7069 7.39117 43.4306 5.96225 40.7705 5.96225C37.2985 5.96225 34.4863 8.39892 34.4863 11.4023C34.4863 14.4102 37.2985 16.8484 40.7705 16.8484C44.2424 16.8484 47.0547 14.4086 47.0547 11.4023C47.0547 11.0822 47.0229 10.7621 46.9627 10.4527ZM51.9593 3.17027H48.2857V0H51.9593V3.17027ZM51.9593 16.8285H48.2857V6.28387H51.9593V16.8285Z" fill="#E60012"/>
</svg>
